<svg width="60" height="66" viewBox="0 0 60 66" fill="none" xmlns="http://www.w3.org/2000/svg">
<g clip-path="url(#clip0)">
<path d="M29.98 66C29.7825 66 29.5825 65.9478 29.4025 65.8433L0.6725 49.3432C0.26 49.1067 0 48.6365 0 48.125V17.1875C0 16.7117 0.225 16.269 0.5925 16.0187C0.96 15.7685 1.4225 15.7465 1.8075 15.9582L30.5375 31.7707C30.96 32.0045 31.2275 32.4802 31.2275 33V64.625C31.2275 65.1063 31 65.5517 30.625 65.802C30.43 65.934 30.205 66 29.98 66ZM2.5 47.2917L28.73 62.3562V33.8497L2.5 19.4122V47.2917Z" fill="#3E4B5B"/>
<path d="M30.02 66C29.795 66 29.57 65.934 29.3725 65.802C29 65.5517 28.77 65.1062 28.77 64.625V33C28.77 32.4802 29.0375 32.0045 29.46 31.7707L58.19 15.9582C58.5725 15.7437 59.0375 15.7657 59.405 16.0187C59.775 16.2689 60 16.7117 60 17.1874V48.125C60 48.6365 59.74 49.1067 59.3275 49.3432L30.5975 65.8432C30.4175 65.9477 30.2175 66 30.02 66ZM31.27 33.8497V62.3562L57.5 47.2917V19.4122L31.27 33.8497ZM58.75 48.125H58.775H58.75Z" fill="#3E4B5B"/>
<path d="M1.24967 18.5623C0.789669 18.5623 0.349669 18.2846 0.129669 17.8033C-0.180331 17.1241 0.0721686 16.2991 0.689669 15.9581L29.4597 0.145596C29.8122 -0.0469043 30.2272 -0.0469043 30.5772 0.145596L59.3072 15.9581C59.9247 16.2991 60.1747 17.1241 59.8672 17.8033C59.5572 18.4826 58.8097 18.7548 58.1897 18.4193L30.0197 2.9121L1.80967 18.4166C1.62967 18.5156 1.43967 18.5623 1.24967 18.5623Z" fill="#3E4B5B"/>
<path d="M45.0001 41.25C44.3101 41.25 43.7501 40.634 43.7501 39.875V25.5997L15.7101 10.1667C15.0926 9.82846 14.8426 9.00071 15.1526 8.32146C15.4626 7.64221 16.2126 7.36996 16.8301 7.70546L45.5601 23.518C45.9826 23.7545 46.2501 24.2302 46.2501 24.75V39.875C46.2501 40.634 45.6901 41.25 45.0001 41.25Z" fill="#3E4B5B"/>
</g>
<defs>
<clipPath id="clip0">
<rect width="60" height="66" fill="white"/>
</clipPath>
</defs>
</svg>
