<svg width="65" height="65" viewBox="0 0 65 65" fill="none" xmlns="http://www.w3.org/2000/svg">
<path d="M27.2705 59.5138C20.2122 58.7438 13.9882 55.4072 9.56071 50.4664C5.13327 45.5257 2.4383 38.9807 2.4383 31.9225C2.4383 24.2226 5.58243 17.2927 10.5874 12.2878C15.5923 7.28282 22.5864 4.1387 30.2863 4.1387C37.9862 4.1387 44.9161 7.28282 49.9852 12.2878C54.926 17.2927 58.0701 24.2226 58.0701 31.9225C58.0701 32.6925 58.0701 33.4625 58.0059 34.2325C57.9418 35.0025 57.8776 35.7725 57.7493 36.5424C57.6209 37.1841 58.0701 37.8258 58.7118 37.9541C59.3534 38.0824 59.9951 37.6333 60.1234 36.9916C60.2517 36.1575 60.3801 35.3233 60.4442 34.4891C60.5084 33.655 60.5726 32.8208 60.5726 31.9867C60.5726 23.6451 57.1718 16.0735 51.7177 10.6194C46.2636 5.16535 38.692 1.76456 30.3504 1.76456C22.0089 1.76456 14.4373 5.16535 8.98322 10.6194C3.40079 16.0094 0 23.5809 0 31.9225C0 39.6224 2.88746 46.7448 7.76407 52.1347C12.5765 57.4605 19.3781 61.118 27.0138 61.9521C27.6555 62.0163 28.2971 61.5671 28.3613 60.8613C28.4255 60.2196 27.9763 59.578 27.2705 59.5138Z" fill="#3E4B5B"/>
<path d="M27.912 52.9047C22.5221 52.3272 17.838 49.7606 14.4372 45.9748C11.293 42.5098 9.36806 38.0182 9.04723 33.0775H12.063C12.7047 33.0775 13.2822 32.5641 13.2822 31.8583C13.2822 31.2167 12.7689 30.6392 12.063 30.6392H9.04723C9.36806 25.2492 11.6139 20.4368 15.2072 16.9077C18.8004 13.3144 23.6129 11.0686 28.9386 10.7478V13.7636C28.9386 14.4052 29.452 14.9827 30.1578 14.9827C30.7995 14.9827 31.3769 14.4694 31.3769 13.7636V10.7478C36.7669 11.0686 41.5793 13.3144 45.1084 16.9077C48.7017 20.501 50.9475 25.3134 51.2684 30.6392H48.2526C47.6109 30.6392 47.0334 31.1525 47.0334 31.8583C47.0334 32.5 47.5467 33.0775 48.2526 33.0775H51.2684C51.2042 34.2966 51.0117 35.4516 50.755 36.6708C50.4984 38.2107 49.985 39.7507 49.2792 41.2265C48.9584 41.804 49.215 42.574 49.8567 42.8307C50.4342 43.1515 51.2042 42.8948 51.4609 42.2532C52.2308 40.649 52.8725 38.9166 53.2575 37.1841C53.6425 35.4516 53.835 33.655 53.835 31.8583C53.835 25.3776 51.2042 19.4743 46.9051 15.1752C42.6701 10.9403 36.7669 8.24531 30.222 8.24531C23.7412 8.24531 17.838 10.8761 13.5388 15.1752C9.3039 19.4743 6.6731 25.3776 6.6731 31.9225C6.6731 37.9541 8.9189 43.4723 12.7047 47.6431C16.4905 51.8139 21.6879 54.7013 27.6553 55.343C28.297 55.4072 28.9386 54.958 29.0028 54.2522C29.067 53.6105 28.6178 52.9689 27.912 52.9047Z" fill="#3E4B5B"/>
<path d="M34.0078 31.9225C34.0078 30.8958 33.5587 29.9334 32.917 29.2275C32.532 28.8425 32.0187 28.5217 31.4412 28.3292V18.5118C31.4412 17.806 30.9279 17.2927 30.2221 17.2927C29.5804 17.2927 29.0029 17.806 29.0029 18.5118V28.3292C28.4896 28.5217 27.9763 28.7784 27.5913 29.1634L27.5271 29.2275C27.1421 29.6125 26.8213 30.1259 26.6288 30.7033H19.3139C18.6722 30.7033 18.0947 31.2167 18.0947 31.9225C18.0947 32.5642 18.6081 33.1416 19.3139 33.1416H26.6288C26.8213 33.7191 27.1421 34.2325 27.5271 34.6175C28.2329 35.3233 29.1954 35.7083 30.2221 35.7083C31.2487 35.7083 32.2112 35.2591 32.917 34.6175C33.6228 33.9116 34.0078 32.9491 34.0078 31.9225ZM31.2487 32.885C30.9921 33.1416 30.6712 33.27 30.2862 33.27C29.9012 33.27 29.5162 33.1416 29.3237 32.885C29.0671 32.6283 28.9387 32.3075 28.9387 31.9225C28.9387 31.5375 29.0671 31.2167 29.3237 30.96C29.3237 30.96 29.3237 30.96 29.3879 30.8958C29.6446 30.6392 29.9654 30.5108 30.3504 30.5108C30.7354 30.5108 31.1204 30.6392 31.3129 30.8958C31.5695 31.1525 31.6979 31.4733 31.6979 31.8583C31.6337 32.3075 31.5054 32.6283 31.2487 32.885Z" fill="#3E4B5B"/>
<path d="M64.8074 54.8939C64.6791 54.5089 64.4866 54.1239 64.1658 53.8031C63.8449 53.4822 63.5241 53.2897 63.1391 53.0972C62.7541 52.9689 62.3691 52.9047 61.92 52.9047V51.4289C61.92 51.3648 61.92 51.2364 61.92 51.1723C61.8558 50.7873 61.7916 50.4664 61.6633 50.1456C61.4708 49.7606 61.2141 49.4398 60.8933 49.1831C60.5725 48.9265 60.1875 48.734 59.7383 48.6056C59.1608 48.7981 58.7117 48.734 58.2625 48.734C58.1342 48.734 58.0058 48.734 57.8775 48.734C58.07 48.4131 58.2625 48.0923 58.3908 47.8356C58.3908 47.8356 58.3908 47.7715 58.455 47.7715C58.7758 47.194 59.0325 46.7448 59.2892 46.2957C59.4175 46.039 59.5458 45.7182 59.61 45.4615C59.6741 45.1407 59.7383 44.884 59.7383 44.5632C59.7383 44.114 59.61 43.6649 59.3533 43.2157C59.1608 42.8307 58.84 42.5099 58.3908 42.2532C58.0058 41.9965 57.6208 41.7399 57.2358 41.6116C56.7867 41.4832 56.4017 41.3549 55.9525 41.3549C55.2467 41.3549 54.6692 41.5474 54.0917 41.8682C53.5784 42.189 53.1292 42.7024 52.8084 43.2799C51.4609 45.654 50.3701 47.6431 49.5359 49.1831C48.7018 50.7231 48.0601 51.7498 47.7393 52.3272C47.4185 52.8406 47.0976 53.4181 46.9693 53.9956C46.7768 54.6372 46.7126 55.2147 46.7126 55.9205C46.7126 56.3697 46.7768 56.8189 46.9693 57.268C47.0976 57.7172 47.3543 58.1022 47.611 58.423C47.9318 58.808 48.3168 59.1288 48.766 59.3855C49.2151 59.578 49.6643 59.7063 50.1776 59.7063H55.1825V60.2838C55.1825 60.733 55.2467 61.1821 55.4392 61.5671C55.6317 62.0163 55.8884 62.3371 56.2734 62.5938C56.5942 62.8504 56.9792 63.0429 57.3642 63.1071C57.7492 63.2354 58.1342 63.2354 58.5833 63.2354C59.5458 63.2354 60.3158 62.9788 60.8933 62.4654C61.535 61.9521 61.8558 61.1821 61.92 60.2196C61.92 60.0271 61.92 59.8346 61.92 59.6421H61.9841C63.0108 59.6421 63.7808 59.2572 64.2941 58.6155C64.7432 57.9738 64.9999 57.2038 64.9999 56.113C64.9999 55.6639 64.9357 55.2789 64.8074 54.8939ZM62.1766 57.3322C62.1125 57.3963 61.9841 57.4605 61.7916 57.4605H60.5725C59.9308 57.4605 59.3533 57.9738 59.3533 58.6797C59.3533 59.193 59.3533 59.5138 59.3533 59.6421C59.3533 59.8988 59.3533 60.1555 59.3533 60.4121C59.3533 60.6688 59.2892 60.7971 59.225 60.9255C59.0967 61.0538 58.84 61.118 58.3908 61.118H58.3267C58.1342 61.118 57.9417 61.118 57.8133 61.0538C57.685 61.0538 57.6208 60.9896 57.5567 60.9255L57.4925 60.8613C57.4283 60.7971 57.4283 60.6688 57.4283 60.5405V58.7438C57.4283 58.1022 56.915 57.5247 56.2092 57.5247H50.0493C49.9209 57.5247 49.7926 57.5247 49.6643 57.4605C49.5359 57.3963 49.4718 57.3322 49.3434 57.2039C49.2151 57.0114 49.1509 56.883 49.0868 56.6905C49.0226 56.5622 49.0226 56.3697 49.0226 56.1772C49.0226 55.728 49.0868 55.343 49.2151 54.958C49.3434 54.5731 49.4718 54.2522 49.7284 53.8672L49.7926 53.8031C50.1776 53.1614 50.7551 52.1347 51.6534 50.5948C52.4876 49.119 53.5784 47.1298 54.99 44.6273C55.1184 44.3707 55.3109 44.1782 55.5034 44.0499C55.6317 43.9857 55.8242 43.9215 56.0809 43.9215C56.2734 43.9215 56.4017 43.9215 56.5942 43.9857C56.7867 44.0499 56.9792 44.1782 57.1717 44.3065C57.3 44.4349 57.4283 44.499 57.4925 44.6273V44.6915C57.4925 44.7557 57.4925 44.884 57.4283 44.9482C57.4283 45.0765 57.3642 45.2048 57.3 45.3332C57.1075 45.7182 56.8508 46.1673 56.53 46.6807C56.53 46.6807 56.53 46.7448 56.4659 46.7448C56.145 47.3223 55.76 47.8998 55.375 48.6056C54.8617 49.4398 54.5409 50.0173 54.3484 50.3381C54.0917 50.7231 53.8992 51.0439 53.7709 51.3006L52.2951 53.9314C52.1667 54.1239 52.1026 54.3164 52.1026 54.5731C52.1026 55.2147 52.6801 55.7922 53.3217 55.728L56.4017 55.6639C57.0433 55.6639 57.5567 55.1505 57.5567 54.4447V52.2631C57.5567 52.1989 57.5567 52.1989 57.5567 52.1347C57.5567 51.7498 57.6208 51.4289 57.7492 51.3006C57.8775 51.1723 58.07 51.1723 58.3908 51.1723C58.6475 51.1723 58.9042 51.1723 59.0325 51.2364C59.1608 51.2364 59.225 51.3006 59.225 51.3006C59.2892 51.3006 59.2892 51.3648 59.2892 51.4289C59.3533 51.4931 59.3533 51.6214 59.3533 51.6856V54.3164C59.2892 55.0222 59.8025 55.5355 60.5083 55.5355H61.7275C61.8558 55.5355 61.9841 55.5355 62.0483 55.5997C62.1124 55.5997 62.1766 55.6639 62.1766 55.6639C62.2408 55.728 62.2408 55.7922 62.3049 55.8564C62.3691 55.9847 62.3691 56.113 62.3691 56.3055C62.3691 56.8189 62.3049 57.1397 62.1766 57.3322Z" fill="#3E4B5B"/>
<path d="M46.6484 57.3963C46.3276 57.0114 46.0068 56.7547 45.6218 56.5622C45.2368 56.3697 44.7876 56.2414 44.3385 56.2414C44.2743 56.2414 44.2743 56.2414 44.0176 56.2414C43.8893 56.2414 43.761 56.2414 43.6327 56.2414C43.5043 56.2414 43.376 56.2414 43.3118 56.2414C43.2477 56.2414 43.2477 56.2414 42.991 56.2414C42.9268 56.2414 42.8627 56.2414 42.7985 56.2414H42.6702H42.221L42.606 55.9205C42.7985 55.9205 43.0552 55.728 43.2477 55.5997C43.4402 55.4714 43.6327 55.2789 43.8252 55.0864C44.0177 54.8939 44.2743 54.6372 44.5951 54.3164C44.916 53.9956 45.2368 53.6747 45.4293 53.4181C45.686 53.0972 45.8785 52.8406 46.0068 52.5839C46.1351 52.3914 46.2635 52.1347 46.3918 51.8139C46.5201 51.5573 46.6485 51.2364 46.7126 50.9156C46.8409 50.5948 46.9051 50.2098 46.9693 49.8248C47.0334 49.4398 47.0334 49.0548 47.0334 48.734C47.0334 46.4882 46.1993 44.6273 44.4668 43.2799C43.6327 42.6382 42.7343 42.1249 41.7077 41.8041C40.7452 41.4832 39.6544 41.3549 38.4994 41.3549C37.6011 41.3549 36.7027 41.5474 35.8686 41.8041C35.0344 42.1249 34.2644 42.5099 33.4945 43.0874C32.7886 43.6007 32.2753 44.1782 31.8903 44.6915C31.4411 45.3332 31.2486 46.039 31.2486 46.6807C31.2486 47.1298 31.3128 47.5148 31.5053 47.964C31.6336 48.349 31.8903 48.734 32.147 49.0548C32.4678 49.3756 32.7886 49.6964 33.2378 49.8248C33.6228 50.0173 34.0719 50.0814 34.5211 50.0814C35.6761 50.0814 36.6386 49.6964 37.3444 48.9906L37.4086 48.9265C37.7294 48.6698 37.9861 48.4131 38.2427 48.2848C38.4352 48.1565 38.6277 48.1565 38.8202 48.1565C39.0127 48.1565 39.2052 48.1565 39.3335 48.2206C39.4619 48.2848 39.5902 48.349 39.7185 48.4131C39.7827 48.4773 39.8469 48.4773 39.8469 48.5415C39.8469 48.6056 39.8469 48.6056 39.8469 48.734C39.8469 48.7981 39.7827 48.9265 39.6544 49.119V49.1831C39.3977 49.504 38.6919 50.3381 37.4086 51.5573L37.3444 51.6214C37.0877 51.8139 36.8311 52.1347 36.3819 52.5197C35.8686 52.9689 35.4194 53.4181 34.9061 53.8031C34.2003 54.4447 33.7511 54.8297 33.5586 55.0222C33.1736 55.343 32.9811 55.5355 32.917 55.5997C32.917 55.5997 32.917 55.6639 32.8528 55.6639C32.5961 55.9205 32.3395 56.2414 32.0828 56.498C31.8261 56.8189 31.6336 57.1397 31.5053 57.3963C31.377 57.7172 31.2486 58.038 31.1845 58.423C31.1203 58.808 31.0562 59.1288 31.0562 59.5138C31.0562 60.5405 31.377 61.4388 32.0186 62.0805C32.3395 62.4654 32.7245 62.7221 33.1736 62.9146C33.6228 63.1071 34.0719 63.1713 34.5853 63.1713H34.6494C35.9328 63.1713 37.0877 63.1713 38.1786 63.2354C39.5902 63.2354 40.4885 63.2354 40.8735 63.2354H44.0176H44.0818C44.531 63.2354 44.916 63.1713 45.301 63.0429C45.3651 63.0429 45.3651 63.0429 45.4293 62.9788C45.8143 62.8504 46.1351 62.5938 46.456 62.3371C46.7768 62.0163 47.0334 61.6313 47.2259 61.118C47.3543 60.6688 47.4184 60.2196 47.4184 59.7063C47.4184 59.3213 47.3543 58.8722 47.2259 58.4872C47.0976 58.1022 46.9051 57.7172 46.6484 57.3963ZM45.1085 60.5405C45.0443 60.6688 45.0443 60.733 44.9801 60.7971C44.916 60.8613 44.8518 60.9255 44.7876 60.9255H44.7235C44.5951 60.9896 44.4668 60.9896 44.3385 60.9896C44.2743 60.9896 44.2743 60.9896 44.2101 60.9896H41.066C39.9752 60.9896 39.0769 60.9896 38.3711 60.9896C37.3444 60.9896 36.1894 60.9896 34.9061 60.9255C34.8419 60.9255 34.8419 60.9255 34.7778 60.9255C34.5853 60.9255 34.4569 60.9255 34.3286 60.8613C34.2003 60.7971 34.0719 60.733 34.0078 60.6046C33.8153 60.348 33.687 60.0913 33.687 59.6421C33.687 59.3855 33.6869 59.193 33.7511 59.0647C33.8153 58.8722 33.8153 58.7438 33.8794 58.6155C33.9436 58.4872 34.0719 58.2947 34.2003 58.1022C34.3286 57.9097 34.5211 57.7172 34.7136 57.5247L34.7778 57.4605C34.8419 57.3963 35.0344 57.2038 35.3553 56.9472C35.8686 56.498 36.2536 56.113 36.7027 55.7922C37.3444 55.2147 37.8577 54.7655 38.1786 54.4447C38.5636 54.1239 38.8844 53.8031 39.141 53.5464L39.2052 53.4822C40.5527 52.1347 41.3869 51.2364 41.7077 50.7231V50.6589C42.0927 50.0814 42.2852 49.504 42.2852 48.9265C42.2852 48.4773 42.1568 48.0281 41.9643 47.6431C41.7718 47.2581 41.5152 46.9373 41.1302 46.6807C40.8094 46.424 40.4244 46.2315 40.0394 46.1032C39.6544 45.9748 39.2694 45.9107 38.8202 45.9107C38.2427 45.9107 37.7294 46.039 37.1519 46.3598C36.7027 46.6165 36.2536 46.9373 35.7403 47.3865L35.6761 47.4506C35.4194 47.7073 35.0344 47.8356 34.5211 47.8356C34.3928 47.8356 34.2644 47.8356 34.2003 47.7715C34.1361 47.7073 34.0078 47.6431 33.9436 47.579C33.8153 47.4506 33.7511 47.3223 33.7511 47.2581C33.6869 47.1298 33.687 47.0015 33.687 46.809C33.687 46.5523 33.7511 46.3598 33.9436 46.1032C34.1361 45.7823 34.5211 45.4615 34.9703 45.0765C35.4836 44.6273 36.0611 44.3707 36.7027 44.114C37.2802 43.9215 37.9219 43.7932 38.6277 43.7932C39.526 43.7932 40.296 43.8574 41.066 44.114C41.7718 44.3707 42.4777 44.6915 43.0552 45.1407C44.146 46.039 44.7235 47.194 44.7235 48.734C44.7235 48.9906 44.7235 49.2473 44.6593 49.4398C44.5951 49.6323 44.5951 49.8889 44.4668 50.1456C44.4026 50.4023 44.2743 50.6589 44.2101 50.8514C44.146 51.0439 44.0176 51.2364 43.9535 51.3648C43.8893 51.4931 43.761 51.6214 43.6327 51.8139C43.4402 52.0064 43.2477 52.2631 42.9268 52.5197C42.6702 52.7764 42.4135 53.0331 42.1568 53.2897C41.9643 53.4822 41.7718 53.6747 41.6435 53.7389C41.5152 53.8031 41.3227 53.9956 41.0019 54.3164C40.8094 54.5089 40.4244 54.7656 39.911 55.2147L38.0502 56.7547C37.7936 56.9472 37.6011 57.268 37.6011 57.653C37.6011 58.2947 38.1144 58.8722 38.7561 58.9363C39.2052 58.9363 39.7185 58.9363 40.4244 58.9363C41.066 58.9363 41.836 58.9363 42.7343 58.8722C42.7985 58.8722 42.7985 58.8722 42.8627 58.8722H43.0552C43.1193 58.8722 43.1835 58.8722 43.376 58.8722C43.5043 58.8722 43.6327 58.8722 43.761 58.8722C43.8893 58.8722 44.0177 58.8722 44.146 58.8722C44.2101 58.8722 44.2101 58.8722 44.4668 58.8722C44.5951 58.8722 44.6593 58.8722 44.7235 58.9363C44.7876 59.0005 44.8518 59.0005 44.916 59.1288C44.9801 59.2572 45.0443 59.3855 45.1085 59.5138C45.1726 59.6422 45.1726 59.7705 45.1726 59.963C45.1726 60.2196 45.1726 60.4121 45.1085 60.5405Z" fill="#3E4B5B"/>
</svg>
