<svg width="65" height="65" viewBox="0 0 65 65" fill="none" xmlns="http://www.w3.org/2000/svg">
<path d="M9.95791 29.7579H13.9284C16.5628 36.7745 23.8992 41.8355 32.5146 41.8355C38.6918 41.8355 44.2107 39.2329 47.8111 35.174H52.9152C53.8624 35.174 54.6301 34.4777 54.6301 33.6185V29.7579H55.4032C57.2633 29.7579 58.7765 28.3853 58.7765 26.698V18.8747C58.7765 17.3838 57.5945 16.1392 56.0362 15.8696C54.9108 11.2457 52.1393 7.31616 47.9794 4.46587C43.715 1.54431 38.3673 0 32.5144 0C20.6346 0 11.2642 6.38229 8.97475 15.9476C7.59269 16.3304 6.58447 17.4976 6.58447 18.8747V26.698C6.58447 28.3853 8.09776 29.7579 9.95791 29.7579ZM10.0143 26.6469V18.9259H13.7109C13.1758 20.544 12.887 22.2578 12.887 24.0318C12.887 24.9201 12.96 25.7931 13.0992 26.6469H10.0143ZM32.5144 38.7244C23.5829 38.7244 16.3166 32.1333 16.3166 24.0318C16.3166 15.9303 23.5829 9.33943 32.5144 9.33943C41.4461 9.33943 48.7124 15.9304 48.7124 24.0318C48.7124 26.9938 47.7401 29.7531 46.0716 32.063H31.5193C30.5723 32.063 29.8044 32.7594 29.8044 33.6185C29.8044 34.4777 30.5723 35.174 31.5193 35.174H43.0611C40.2251 37.3857 36.5391 38.7244 32.5144 38.7244ZM51.2002 32.063H50.0285C50.4426 31.3225 50.8022 30.553 51.1006 29.7579H51.2V32.063H51.2002ZM55.3465 26.6469H51.9301C52.0693 25.7932 52.1423 24.9201 52.1423 24.0318C52.1423 22.2578 51.8533 20.544 51.3184 18.9259H55.3467V26.6469H55.3465ZM32.5144 3.11107C42.3997 3.11107 50.2236 8.15682 52.4899 15.8148H49.9225C46.6436 10.1229 40.0715 6.22836 32.5144 6.22836C24.9575 6.22836 18.3854 10.1229 15.1065 15.8148H12.5386C14.8027 8.16155 22.6425 3.11107 32.5144 3.11107Z" fill="#3E4B5B"/>
<path d="M50.1271 42.5205H14.8728C9.42893 42.5205 5 46.5377 5 51.4756V63.4443C5 64.3035 5.76783 64.9999 6.71491 64.9999C7.66198 64.9999 8.42981 64.3035 8.42981 63.4443V51.4756C8.42981 48.2532 11.3201 45.6316 14.8728 45.6316H50.1271C53.6798 45.6316 56.5702 48.2532 56.5702 51.4758V63.4445C56.5702 64.3037 57.3379 65 58.2851 65C59.2323 65 60 64.3037 60 63.4445V51.4758C60 46.5378 55.5711 42.5205 50.1271 42.5205Z" fill="#3E4B5B"/>
</svg>
