<svg width="65" height="65" viewBox="0 0 65 65" fill="none" xmlns="http://www.w3.org/2000/svg">
<path d="M39.4618 15.9174C39.4618 12.0786 36.3389 8.95557 32.5001 8.95557C28.6614 8.95557 25.5383 12.0786 25.5383 15.9174C25.5383 19.7561 28.6614 22.8791 32.5001 22.8791C36.3387 22.8792 39.4618 19.7561 39.4618 15.9174ZM28.6517 15.9174C28.6517 13.7953 30.3781 12.0689 32.5001 12.0689C34.6221 12.0689 36.3485 13.7953 36.3485 15.9174C36.3485 18.0393 34.6221 19.7657 32.5001 19.7657C30.3781 19.7659 28.6517 18.0395 28.6517 15.9174Z" fill="#3E4B5B"/>
<path d="M64.2629 63.0745L56.3789 30.7546C56.2087 30.0575 55.5842 29.5669 54.8665 29.5669H44.4042C47.4561 23.7444 49 19.3613 49 16.5001C49.0002 7.40188 41.5981 0 32.4999 0C23.4018 0 15.9999 7.40188 15.9999 16.5001C15.9999 19.3613 17.5439 23.7444 20.5957 29.5669H10.1331C9.41536 29.5669 8.7908 30.0575 8.62079 30.7547L0.737018 63.0745C0.62372 63.5386 0.72998 64.029 1.02507 64.4048C1.32016 64.7806 1.77146 65 2.24929 65H62.7505C63.2282 65 63.6797 64.7806 63.9747 64.4048C64.27 64.0292 64.3761 63.5386 64.2629 63.0745ZM32.4999 3.11333C39.8813 3.11333 45.8868 9.11854 45.8868 16.5001C45.8868 22.2791 37.1558 36.3216 32.4999 43.1738C27.844 36.3216 19.1133 22.2793 19.1133 16.5003C19.1133 9.11868 25.1185 3.11333 32.4999 3.11333ZM4.2314 61.8867L11.3556 32.6801H22.2933C22.7354 33.4624 23.2001 34.266 23.6882 35.092C27.4131 41.3943 31.1908 46.7547 31.2286 46.8081C31.5203 47.2211 31.9945 47.4667 32.5 47.4667C33.0056 47.4667 33.4798 47.2211 33.7716 46.8081C33.8093 46.7547 37.587 41.3943 41.312 35.092C41.8001 34.2661 42.2648 33.4625 42.7068 32.6802H53.6442L60.7688 61.8868H4.2314V61.8867Z" fill="#3E4B5B"/>
</svg>
