<svg width="58" height="60" viewBox="0 0 58 60" fill="none" xmlns="http://www.w3.org/2000/svg">
<g clip-path="url(#clip0)">
<path d="M23.3987 50.4325H26.8043V53.9481H23.3987V50.4325Z" fill="#3E4B5B"/>
<path d="M7.79785 18.1558H11.2034V21.6714H7.79785V18.1558Z" fill="#3E4B5B"/>
<path d="M7.79785 26.2249H11.2034V29.7405H7.79785V26.2249Z" fill="#3E4B5B"/>
<path d="M7.79785 34.2941H11.2034V37.8097H7.79785V34.2941Z" fill="#3E4B5B"/>
<path d="M56.3624 11.7831C54.6997 10.0631 52.2435 9.65449 50.2022 10.5544V0H0.00244141V60H50.2022V26.3474L56.3624 19.9747C58.5456 17.7163 58.5456 14.0415 56.3624 11.7831ZM46.8038 3.51562V8.06918H3.40088V3.51562H46.8038ZM3.40088 56.4844V47.8962H46.8038V56.4844H3.40088ZM46.8038 44.3805H3.40088V11.5848H46.8038V13.4796L42.2835 18.1556H15.5993V21.6712H38.8851L34.4833 26.2248H15.5993V29.7404H31.2033V34.294H15.5993V37.8096H39.122L46.8038 29.8629V44.3805ZM34.6017 31.0743L37.0392 28.5527L40.1517 31.7726L37.7142 34.2941H34.6017V31.0743ZM53.9593 17.4888L42.5549 29.2867L39.4423 26.0668L50.8469 14.269C51.705 13.3813 53.1012 13.3812 53.9594 14.269C54.8174 15.1567 54.8174 16.6011 53.9593 17.4888Z" fill="#3E4B5B"/>
</g>
<defs>
<clipPath id="clip0">
<rect width="58" height="60" fill="white"/>
</clipPath>
</defs>
</svg>
