<svg width="65" height="65" viewBox="0 0 65 65" fill="none" xmlns="http://www.w3.org/2000/svg">
<path d="M36.5793 16.3177H26.3807C25.329 16.3177 24.4764 17.1703 24.4764 18.222V32.6353H22.3013C21.2496 32.6353 20.397 33.4879 20.397 34.5396C20.397 35.5913 21.2496 36.4439 22.3013 36.4439H24.4764V40.7942H22.3013C21.2496 40.7942 20.397 41.6468 20.397 42.6985C20.397 43.7502 21.2496 44.6028 22.3013 44.6028H24.4764V48.8176C24.4764 49.8693 25.329 50.7219 26.3807 50.7219C27.4323 50.7219 28.2849 49.8693 28.2849 48.8176V44.6028H36.5793C37.631 44.6028 38.4836 43.7502 38.4836 42.6985C38.4836 41.6468 37.631 40.7942 36.5793 40.7942H28.2849V36.4439H36.5793C42.1282 36.4439 46.6425 31.9296 46.6425 26.3807C46.6424 20.6948 42.0107 16.3177 36.5793 16.3177ZM36.5793 32.6353H28.2849V20.1263H36.5793C40.0073 20.1263 42.8339 22.8913 42.8339 26.3809C42.8338 29.8297 40.0281 32.6353 36.5793 32.6353Z" fill="#3E4B5B"/>
<path d="M32.5 0C14.5794 0 0 14.5794 0 32.5C0 50.4206 14.5794 65 32.5 65C50.4206 65 65 50.4206 65 32.5C65 14.5794 50.4206 0 32.5 0ZM32.5 61.1914C16.6795 61.1914 3.80859 48.3205 3.80859 32.5C3.80859 16.6795 16.6795 3.80859 32.5 3.80859C48.3205 3.80859 61.1914 16.6795 61.1914 32.5C61.1914 48.3205 48.3205 61.1914 32.5 61.1914Z" fill="#3E4B5B"/>
</svg>
