<svg width="64" height="64" viewBox="0 0 64 64" fill="none" xmlns="http://www.w3.org/2000/svg">
<path d="M11.8669 29.3001H15.413C17.7658 36.2087 24.318 41.1919 32.0125 41.1919C37.5295 41.1919 42.4585 38.6293 45.674 34.6329H50.2326C51.0786 34.6329 51.7642 33.9473 51.7642 33.1013V29.3001H52.4546C54.116 29.3001 55.4674 27.9486 55.4674 26.2873V18.5843C55.4674 17.1164 54.4118 15.8909 53.02 15.6254C52.0149 11.0727 49.5397 7.2036 45.8244 4.39717C42.0158 1.52055 37.2397 0 32.0124 0C21.4024 0 13.0336 6.2841 10.9888 15.7023C9.75445 16.0792 8.854 17.2284 8.854 18.5843V26.2873C8.854 27.9486 10.2055 29.3001 11.8669 29.3001ZM11.9172 26.2369V18.6347H15.2187C14.7408 20.228 14.4828 21.9154 14.4828 23.6621C14.4828 24.5367 14.5481 25.3963 14.6724 26.2369H11.9172ZM32.0124 38.1287C24.0355 38.1287 17.5459 31.6389 17.5459 23.6621C17.5459 15.6852 24.0355 9.19575 32.0124 9.19575C39.9894 9.19575 46.479 15.6854 46.479 23.6621C46.479 26.5785 45.6106 29.2953 44.1204 31.5697H31.1237C30.2778 31.5697 29.5921 32.2554 29.5921 33.1013C29.5921 33.9473 30.2778 34.6329 31.1237 34.6329H41.4318C38.8989 36.8106 35.6069 38.1287 32.0124 38.1287ZM48.7009 31.5697H47.6545C48.0243 30.8406 48.3454 30.083 48.6119 29.3001H48.7007V31.5697H48.7009ZM52.404 26.2369H49.3528C49.4771 25.3964 49.5423 24.5367 49.5423 23.6621C49.5423 21.9154 49.2842 20.228 48.8065 18.6347H52.4042V26.2369H52.404ZM32.0124 3.06321C40.8411 3.06321 47.8287 8.03133 49.8528 15.5715H47.5598C44.6313 9.96714 38.7617 6.13254 32.0124 6.13254C25.2632 6.13254 19.3936 9.96714 16.4651 15.5715H14.1717C16.1938 8.03599 23.1957 3.06321 32.0124 3.06321Z" fill="#3E4B5B"/>
<path d="M47.743 41.8662H16.257C11.395 41.8662 7.43945 45.8216 7.43945 50.6836V62.4681C7.43945 63.3141 8.12521 63.9998 8.97106 63.9998C9.8169 63.9998 10.5027 63.3141 10.5027 62.4681V50.6836C10.5027 47.5108 13.084 44.9294 16.257 44.9294H47.743C50.916 44.9294 53.4974 47.5108 53.4974 50.6837V62.4683C53.4974 63.3143 54.1831 63.9999 55.0291 63.9999C55.875 63.9999 56.5607 63.3143 56.5607 62.4683V50.6837C56.5607 45.8217 52.6051 41.8662 47.743 41.8662Z" fill="#3E4B5B"/>
</svg>
