<svg width="60" height="75" viewBox="0 0 60 75" fill="none" xmlns="http://www.w3.org/2000/svg">
<path d="M59.5892 34.6052L49.413 21.8849C49.1499 21.5562 48.7931 21.3714 48.4211 21.3714H41.1194V14.6839C41.1194 12.9238 39.9019 11.4369 38.4609 11.4369H2.59758C1.16529 11.4369 0 12.8934 0 14.6839V51.8766C0 53.6671 1.16529 55.1238 2.59758 55.1238H6.86491C7.50683 59.9063 10.8402 63.5631 14.8458 63.5631C18.8514 63.5631 22.1848 59.9065 22.8268 55.1238H41.399C42.0409 59.9063 45.3743 63.5631 49.3799 63.5631C53.3862 63.5631 56.7203 59.9052 57.3612 55.1212C57.375 55.1218 57.3884 55.1239 57.4023 55.1239C58.8347 55.1239 59.9999 53.6673 59.9999 51.8769V35.8449C60 35.38 59.8522 34.9341 59.5892 34.6052ZM47.84 24.878L55.4895 34.4398H41.1194V24.878H47.84ZM6.88625 51.6173H2.80529V14.9435L38.3141 14.9437V51.6173H22.8054C22.1148 46.9081 18.8097 43.3272 14.8458 43.3272C10.8821 43.3272 7.57684 46.9081 6.88625 51.6173ZM14.8458 60.0565C11.9294 60.0565 9.55676 57.0907 9.55676 53.4452C9.55676 49.7997 11.9294 46.8338 14.8458 46.8338C17.7622 46.8338 20.1349 49.7997 20.1349 53.4452C20.135 57.0907 17.7622 60.0565 14.8458 60.0565ZM49.3799 60.0565C46.4635 60.0565 44.0908 57.0907 44.0908 53.4452C44.0908 49.7997 46.4635 46.8338 49.3799 46.8338C52.2963 46.8338 54.669 49.7997 54.669 53.4452C54.6691 57.0907 52.2963 60.0565 49.3799 60.0565ZM49.3799 43.3272C45.416 43.3272 42.1109 46.9081 41.4203 51.6173H41.1193V37.9464H57.1946V50.8125C56.2652 46.506 53.1147 43.3272 49.3799 43.3272Z" fill="#3E4B5B"/>
</svg>
