<svg width="65" height="75" viewBox="0 0 65 75" fill="none" xmlns="http://www.w3.org/2000/svg">
<path d="M64.555 34.6052L53.5307 21.8849C53.2457 21.5562 52.8592 21.3714 52.4562 21.3714H44.5461V14.6839C44.5461 12.9238 43.2271 11.4369 41.6659 11.4369H2.81404C1.2624 11.4369 0 12.8934 0 14.6839V51.8766C0 53.6671 1.2624 55.1238 2.81404 55.1238H7.43698C8.1324 59.9063 11.7436 63.5631 16.083 63.5631C20.4224 63.5631 24.0336 59.9065 24.729 55.1238H44.8489C45.5443 59.9063 49.1555 63.5631 53.4949 63.5631C57.8351 63.5631 61.4469 59.9052 62.1413 55.1212C62.1562 55.1218 62.1708 55.1239 62.1858 55.1239C63.7376 55.1239 64.9999 53.6673 64.9999 51.8769V35.8449C65 35.38 64.8399 34.9341 64.555 34.6052ZM51.8267 24.878L60.1136 34.4398H44.5461V24.878H51.8267ZM7.46011 51.6173H3.03906V14.9435L41.507 14.9437V51.6173H24.7059C23.9577 46.9081 20.3772 43.3272 16.083 43.3272C11.7889 43.3272 8.20824 46.9081 7.46011 51.6173ZM16.083 60.0565C12.9235 60.0565 10.3532 57.0907 10.3532 53.4452C10.3532 49.7997 12.9235 46.8338 16.083 46.8338C19.2424 46.8338 21.8128 49.7997 21.8128 53.4452C21.8129 57.0907 19.2424 60.0565 16.083 60.0565ZM53.4949 60.0565C50.3355 60.0565 47.7651 57.0907 47.7651 53.4452C47.7651 49.7997 50.3355 46.8338 53.4949 46.8338C56.6543 46.8338 59.2247 49.7997 59.2247 53.4452C59.2249 57.0907 56.6543 60.0565 53.4949 60.0565ZM53.4949 43.3272C49.2007 43.3272 45.6202 46.9081 44.872 51.6173H44.5459V37.9464H61.9608V50.8125C60.954 46.506 57.5409 43.3272 53.4949 43.3272Z" fill="#3E4B5B"/>
</svg>
